<svg width="24" height="24" viewBox="0 0 24 24" fill="none" xmlns="http://www.w3.org/2000/svg">
<path d="M18.8571 14.4283C18.8571 14.9806 18.4094 15.4283 17.8571 15.4283H15.2857C14.7334 15.4283 14.2857 14.9806 14.2857 14.4283V6.14258C14.2857 5.59029 14.7334 5.14258 15.2857 5.14258H17.8571C18.4094 5.14258 18.8571 5.59029 18.8571 6.14258V14.4283ZM15.4286 13.2854C15.4286 13.8377 15.8763 14.2854 16.4286 14.2854H16.7143C17.2666 14.2854 17.7143 13.8377 17.7143 13.2854V7.28544C17.7143 6.73315 17.2666 6.28544 16.7143 6.28544H16.4286C15.8763 6.28544 15.4286 6.73315 15.4286 7.28544V13.2854Z" fill="white" stroke="white" stroke-width="0.7"/>
<path d="M12 15.5713C12 16.1236 11.5523 16.5713 11 16.5713H8.42856C7.87627 16.5713 7.42856 16.1236 7.42856 15.5713V9.57129C7.42856 9.019 7.87627 8.57129 8.42856 8.57129H11C11.5523 8.57129 12 9.019 12 9.57129V15.5713ZM8.57142 14.4284C8.57142 14.9807 9.01913 15.4284 9.57142 15.4284H9.85713C10.4094 15.4284 10.8571 14.9807 10.8571 14.4284V10.7141C10.8571 10.1619 10.4094 9.71415 9.85713 9.71415H9.57142C9.01913 9.71415 8.57142 10.1619 8.57142 10.7141V14.4284Z" fill="white" stroke="white" stroke-width="0.7"/>
<path d="M20 19.4286C20 19.7442 19.7442 20 19.4286 20H5.14286C4.83985 19.9997 4.54933 19.8792 4.33507 19.6649C4.12081 19.4507 4.0003 19.1602 4 18.8571V4.57143C4 4.25584 4.25584 4 4.57143 4C4.88702 4 5.14286 4.25584 5.14286 4.57143V17.8571C5.14286 18.4094 5.59057 18.8571 6.14286 18.8571H19.4286C19.7442 18.8571 20 19.113 20 19.4286Z" fill="white" stroke="white" stroke-width="0.7"/>
</svg>
