<svg width="16" height="16" viewBox="0 0 16 16" fill="none" xmlns="http://www.w3.org/2000/svg">
<path d="M13.9996 11.0021V12.8122C14.0003 12.9802 13.9659 13.1466 13.8986 13.3005C13.8313 13.4545 13.7325 13.5927 13.6087 13.7063C13.4849 13.8199 13.3387 13.9064 13.1795 13.9602C13.0203 14.0141 12.8517 14.034 12.6843 14.0189C10.8277 13.8172 9.04426 13.1828 7.47734 12.1666C6.01953 11.2403 4.78356 10.0043 3.8572 8.54648C2.83752 6.97244 2.20294 5.18035 2.0049 3.31538C1.98982 3.14853 2.00965 2.98037 2.06312 2.8216C2.11659 2.66284 2.20254 2.51695 2.31548 2.39322C2.42843 2.26949 2.5659 2.17063 2.71915 2.10294C2.87239 2.03526 3.03805 2.00022 3.20558 2.00006H5.01565C5.30846 1.99718 5.59233 2.10087 5.81435 2.2918C6.03636 2.48274 6.18138 2.74789 6.22236 3.03783C6.29876 3.61709 6.44044 4.18585 6.64471 4.73326C6.72589 4.94922 6.74346 5.18392 6.69534 5.40955C6.64721 5.63519 6.53542 5.8423 6.3732 6.00635L5.60694 6.77261C6.46585 8.28314 7.71655 9.53384 9.22708 10.3927L9.99334 9.62649C10.1574 9.46427 10.3645 9.35247 10.5901 9.30435C10.8158 9.25623 11.0505 9.2738 11.2664 9.35498C11.8138 9.55924 12.3826 9.70093 12.9619 9.77733C13.2549 9.81867 13.5226 9.9663 13.714 10.1921C13.9053 10.418 14.007 10.7062 13.9996 11.0021Z" stroke="#374952" stroke-width="1.2" stroke-linecap="round" stroke-linejoin="round"/>
</svg>
