<svg width="24" height="24" viewBox="0 0 24 24" fill="none" xmlns="http://www.w3.org/2000/svg">
<path d="M12.6863 11.0222C10.6792 10.4978 10.0337 9.95556 10.0337 9.11111C10.0337 8.14222 10.9267 7.46667 12.4211 7.46667C13.6766 7.46667 14.3044 7.94667 14.5343 8.71111C14.6404 9.06667 14.9322 9.33333 15.3036 9.33333H15.5688C16.1524 9.33333 16.568 8.75556 16.3646 8.20444C15.9933 7.15556 15.1267 6.28444 13.7474 5.94667V5.33333C13.7474 4.59556 13.1549 4 12.4211 4C11.6872 4 11.0947 4.59556 11.0947 5.33333V5.92C9.37937 6.29333 8 7.41333 8 9.12889C8 11.1822 9.68884 12.2044 12.1558 12.8C14.3663 13.3333 14.8084 14.1156 14.8084 14.9422C14.8084 15.5556 14.3752 16.5333 12.4211 16.5333C10.9621 16.5333 10.2105 16.0089 9.91874 15.2622C9.78611 14.9156 9.48547 14.6667 9.12295 14.6667H8.87537C8.28295 14.6667 7.86737 15.2711 8.08842 15.8222C8.59242 17.0578 9.76842 17.7867 11.0947 18.0711V18.6667C11.0947 19.4044 11.6872 20 12.4211 20C13.1549 20 13.7474 19.4044 13.7474 18.6667V18.0889C15.4716 17.76 16.8421 16.7556 16.8421 14.9333C16.8421 12.4089 14.6935 11.5467 12.6863 11.0222Z" fill="white"/>
</svg>
